<svg width="20" height="25" viewBox="0 0 20 25" fill="none" xmlns="http://www.w3.org/2000/svg">
<path d="M19.9875 20.6825C19.9812 20.74 19.9688 20.7938 19.9487 20.8488C19.935 20.8813 19.9212 20.9112 19.9025 20.9425C19.8925 20.9613 19.8888 20.9825 19.875 21C19.8525 21.03 19.8212 21.0475 19.7937 21.0713C19.7775 21.0875 19.7687 21.1112 19.75 21.125L14.75 24.875C14.74 24.8825 14.7237 24.88 14.7125 24.8875C14.6137 24.9525 14.5025 25 14.375 25H5.625C5.49875 25 5.3875 24.9525 5.28875 24.8875C5.2775 24.88 5.26125 24.8825 5.25125 24.875L0.25125 21.125C0.2325 21.1112 0.22375 21.0875 0.20625 21.0713C0.18 21.0475 0.14875 21.03 0.12625 21C0.1125 20.9825 0.10875 20.9613 0.0987497 20.9425C0.0799997 20.9112 0.0662501 20.8813 0.0525001 20.8488C0.0325001 20.7938 0.0199999 20.74 0.0137499 20.6825C0.0124999 20.6625 0 20.6462 0 20.625V4.375C0 4.35375 0.0124999 4.3375 0.0137499 4.3175C0.0199999 4.26 0.0325001 4.20625 0.0525001 4.15125C0.0662501 4.11875 0.0799997 4.08875 0.0987497 4.0575C0.10875 4.03875 0.1125 4.0175 0.12625 4C0.14875 3.97 0.18 3.9525 0.20625 3.92875C0.22375 3.9125 0.2325 3.88875 0.25125 3.875L5.25125 0.125C5.35875 0.0437499 5.49 0 5.625 0H14.375C14.5112 0 14.6425 0.0437499 14.75 0.125L19.75 3.875C19.7687 3.88875 19.7775 3.9125 19.795 3.92875C19.8213 3.9525 19.8525 3.97 19.875 4C19.8888 4.0175 19.8925 4.03875 19.9025 4.0575C19.9212 4.08875 19.935 4.11875 19.9487 4.15125C19.9688 4.20625 19.9812 4.26 19.9875 4.3175C19.9888 4.3375 20 4.35375 20 4.375V20.625C20 20.6462 19.9888 20.6625 19.9875 20.6825ZM5.83375 1.25L1.6675 4.375L5.83375 7.5H14.1675L18.3337 4.375L14.1675 1.25H5.83375ZM18.3337 20.625L15 18.125V23.125L18.3337 20.625ZM15 16.5625L18.75 19.375V5.625L15 8.4375V16.5625ZM6.25 16.25H13.75V8.75H6.25V16.25ZM6.25 23.75H13.75V17.5H6.25V23.75ZM5 18.125L1.6675 20.625L5 23.125V18.125ZM1.25 5.625V19.375L5 16.5625V8.4375L1.25 5.625Z" fill="url(#paint0_linear_96_105)"/>
<defs>
<linearGradient id="paint0_linear_96_105" x1="18.5" y1="13" x2="2" y2="13" gradientUnits="userSpaceOnUse">
<stop stop-color="#295DEA"/>
<stop offset="1" stop-color="#684AD9"/>
</linearGradient>
</defs>
</svg>
